<?xml version="1.0" encoding="UTF-8" standalone="no"?>
<!-- Created with Inkscape (http://www.inkscape.org/) -->

<svg
   width="270.70261mm"
   height="49.598389mm"
   viewBox="0 0 270.70261 49.598389"
   version="1.1"
   id="svg1"
   inkscape:version="1.4.3 (0d15f75, 2025-12-25)"
   sodipodi:docname="MidFD_logo.svg"
   xmlns:inkscape="http://www.inkscape.org/namespaces/inkscape"
   xmlns:sodipodi="http://sodipodi.sourceforge.net/DTD/sodipodi-0.dtd"
   xmlns:xlink="http://www.w3.org/1999/xlink"
   xmlns="http://www.w3.org/2000/svg"
   xmlns:svg="http://www.w3.org/2000/svg">
  <sodipodi:namedview
     id="namedview1"
     pagecolor="#ffffff"
     bordercolor="#000000"
     borderopacity="0.25"
     inkscape:showpageshadow="2"
     inkscape:pageopacity="0.0"
     inkscape:pagecheckerboard="0"
     inkscape:deskcolor="#d1d1d1"
     inkscape:document-units="mm"
     inkscape:zoom="1.6507506"
     inkscape:cx="419.20325"
     inkscape:cy="195.97146"
     inkscape:window-width="3840"
     inkscape:window-height="2071"
     inkscape:window-x="-9"
     inkscape:window-y="-9"
     inkscape:window-maximized="1"
     inkscape:current-layer="layer1" />
  <defs
     id="defs1">
    <linearGradient
       id="linearGradient1"
       inkscape:collect="always">
      <stop
         style="stop-color:#0a192c;stop-opacity:1;"
         offset="0"
         id="stop1" />
      <stop
         style="stop-color:#0390d7;stop-opacity:1;"
         offset="1"
         id="stop2" />
    </linearGradient>
    <linearGradient
       inkscape:collect="always"
       xlink:href="#linearGradient1"
       id="linearGradient2"
       x1="-5.9136886"
       y1="121.40862"
       x2="264.78892"
       y2="121.40862"
       gradientUnits="userSpaceOnUse" />
  </defs>
  <g
     inkscape:label="Layer 1"
     inkscape:groupmode="layer"
     id="layer1"
     transform="translate(5.9136886,-96.609422)">
    <path
       d="m 74.590583,139.70209 q -1.446941,5.51215 -9.577372,5.51215 H 52.64531 q -5.787764,0 -5.787764,-3.34174 0,-1.17133 0.72347,-3.06614 l 5.718862,-14.88282 -17.087685,18.74133 q -2.756078,3.06614 -6.028921,3.06614 -0.620117,0 -1.309137,-0.10335 -3.927412,-0.44787 -3.927412,-3.92742 0,-1.34358 0.620118,-2.89388 l 8.474941,-21.87637 -21.256254,25.66598 q -2.13596,2.61827 -6.2700776,2.61827 H -0.47809758 L 13.440097,105.42336 H -5.6801956 l 5.20209802,-8.681643 H 22.535155 q 4.754235,0 4.754235,3.479553 0,1.34358 -0.654569,3.23839 l -7.40696,21.3596 14.813921,-16.77762 q 2.82498,-3.23839 4.340823,-4.20302 2.514921,-1.58475 6.511235,-1.58475 1.136882,0 2.377117,0.79238 1.894804,1.24023 1.894804,3.68625 0,1.51584 -0.757921,3.41065 l -6.68349,17.36329 13.263626,-13.33253 q 2.824981,-2.82498 3.755157,-3.41064 1.619196,-0.93018 4.650882,-0.89573 1.205784,0 2.549372,0.89573 2.067059,1.34358 2.067059,3.92741 0,1.48139 -0.68902,3.27284 l -8.233783,21.73857 z m 23.702269,-32.03941 q 0,3.4451 -2.68718,5.85666 -2.65272,2.41157 -6.40788,2.41157 -3.824057,0 -6.511233,-2.41157 -2.652725,-2.41156 -2.652725,-5.85666 0,-3.41065 2.652725,-5.82222 2.687176,-2.411567 6.511233,-2.411567 3.75516,0 6.40788,2.411567 2.68718,2.41157 2.68718,5.82222 z m 2.480468,32.03941 q -0.895718,3.03168 -3.720708,4.47862 -2.0326,1.03353 -4.40972,1.03353 H 79.034755 q -4.926489,0 -4.926489,-4.13411 0,-1.17134 0.482313,-2.51493 l 5.99447,-16.77762 h 12.505703 l -6.373428,17.91451 z m 46.06096,0 q -1.72255,5.51215 -8.44049,5.51215 h -13.12582 q -5.68441,0 -5.58106,-3.5829 -3.78961,4.44418 -10.16304,4.44418 -4.16857,0 -6.75239,-2.34267 -2.68718,-2.41157 -2.68718,-6.54568 0,-7.47587 6.06338,-11.71334 5.3399,-3.68625 13.12582,-3.68625 h 7.1658 l 6.44233,-18.19012 h 12.54016 l -12.81576,36.10463 z M 124.5445,127.29973 h -8.75055 l -2.61827,7.40697 q -0.34451,1.03352 -0.34451,1.86035 0,2.30821 2.92833,2.92833 1.03353,0.20671 4.40972,0.20671 z m 89.8826,-30.558013 -5.30546,8.681643 H 196.926 l -5.71886,16.36422 h 11.09321 q -0.48231,5.44325 -6.58014,5.51215 l -6.47678,0.0689 -2.68718,7.61367 q -3.5829,10.23194 -14.1938,10.23194 h -24.11568 q 1.51584,-3.85851 2.65272,-5.4777 1.99816,-2.85944 4.68533,-2.85944 0.41342,0 0.86128,0.0689 l 16.08861,2.54938 11.92003,-34.07202 h -19.70596 q -4.44417,0 -7.99262,2.58382 -3.85851,2.82498 -3.85851,7.0969 0,2.96279 1.99816,3.3762 0.65456,-3.20394 3.37619,-5.1332 2.54937,-1.86035 5.85667,-1.86035 3.5829,0 6.20117,2.20486 2.82498,2.34267 2.82498,6.06338 0,4.13411 -3.37619,6.44233 -2.89388,1.99816 -7.20026,1.99816 -6.64904,0 -11.05876,-3.10059 -4.89204,-3.47955 -4.89204,-9.57737 0,-9.12951 7.23471,-14.26271 6.37343,-4.513077 15.84745,-4.513077 z m 50.22953,16.088603 q 0,6.30453 -4.37527,13.33253 -5.78777,9.26732 -16.81208,14.36606 -10.16304,4.68533 -21.84192,4.68533 h -11.36882 l 12.47125,-35.3467 h 12.4368 l -10.57645,29.83455 q 6.78684,0 13.43588,-4.16857 6.68349,-4.16857 9.74963,-10.30084 2.75608,-5.40881 2.75608,-9.02616 0,-5.92557 -3.3073,-8.50939 -2.96278,-2.27377 -9.09505,-2.27377 h -33.3141 l 5.30545,-8.681643 h 33.34855 q 8.64719,0 14.40051,3.651803 6.78684,4.30637 6.78684,12.4368 z"
       id="text1"
       style="font-weight:bold;font-stretch:semi-expanded;font-size:70.5556px;font-family:Magneto;-inkscape-font-specification:'Magneto Bold Semi-Expanded';stroke:#000000;stroke-width:0;fill:url(#linearGradient2);stroke-dasharray:none;stroke-opacity:0"
       aria-label="MidFD" />
  </g>
</svg>
